<svg xmlns="http://www.w3.org/2000/svg" viewBox="0 0 1699.54 344"><path d="M426.38 259.1v-32.51h130.54q10.33 0 14.87-2.9t4.54-11.69v-9.32q0-8.07-4.54-11.47t-14.61-3.4h-81.91q-14.36 0-23.81-2.65t-15-8.06a28.73 28.73 0 01-7.68-13.61 76.68 76.68 0 01-2.15-19.28v-8.57a79.35 79.35 0 012.78-22.43 34 34 0 018.56-15 34.81 34.81 0 0115.13-8.32 81.92 81.92 0 0122.17-2.65h53.43v32.51h-49.9q-8.82 0-13 3.41t-4.16 13.73v5.55q0 8.06 3.78 11.46t13.11 3.4h80.39a105.43 105.43 0 0124.32 2.4 39.14 39.14 0 0116.26 7.69 29.6 29.6 0 019.07 13.6 63.57 63.57 0 012.77 19.91v13.61a66.61 66.61 0 01-2.75 20.49 29.54 29.54 0 01-9.07 13.73 40.27 40.27 0 01-16.26 7.82 100.6 100.6 0 01-24.32 2.52zm273.18 0q-18.9 0-31.5-3.15t-20.16-10.08a37.85 37.85 0 01-10.71-18.15q-3.19-11.2-3.19-27.59V146.2q0-16.12 3.15-27.47a37.86 37.86 0 0110.71-18.27q7.56-6.93 20.16-10.08t31.5-3.16h65.27q19.15 0 31.76 3.16t20.16 10.08a37.86 37.86 0 0110.71 18.27q3.15 11.34 3.15 27.47v53.93q0 16.38-3.15 27.59a37.85 37.85 0 01-10.71 18.15q-7.56 6.93-20.16 10.08t-31.76 3.15zM792.3 148a54.16 54.16 0 00-1.38-13.36 18.51 18.51 0 00-4.67-8.57 17.75 17.75 0 00-8.94-4.53 65.73 65.73 0 00-14-1.26h-62a70.24 70.24 0 00-14.75 1.26 17.75 17.75 0 00-8.94 4.53 16.72 16.72 0 00-4.41 8.57 65.12 65.12 0 00-1.12 13.36v50.65a68.5 68.5 0 001.14 13.74 16 16 0 004.41 8.57 17.45 17.45 0 008.94 4.28 77.42 77.42 0 0014.75 1.14h62a72.44 72.44 0 0014-1.14 17.45 17.45 0 008.94-4.28 17.65 17.65 0 004.67-8.57 56.94 56.94 0 001.38-13.74zm129.03 111.1q-18.9 0-31.5-3.15t-20.16-10.08A37.85 37.85 0 01859 227.72q-3.16-11.21-3.15-27.59V87.22h38.56v111.65A44.7 44.7 0 00896 212.1a19.06 19.06 0 005.17 8.44 19.56 19.56 0 009.45 4.54 70.93 70.93 0 0014.49 1.26h57.71a70.93 70.93 0 0014.49-1.26 19.56 19.56 0 009.45-4.54 19.11 19.11 0 005.17-8.57 46 46 0 001.64-13.36V87.22h38v112.91q0 16.38-3.15 27.59a37.85 37.85 0 01-10.71 18.15q-7.56 6.93-20.16 10.08t-31.75 3.15zm197.32-49.1v49.1h-38.3V87.22H1218q18.39 0 30.74 2.9t19.91 9.58a36.25 36.25 0 0110.66 17.3q3.15 10.59 3.15 25.71v14.87q0 15.38-3 25.45a32.13 32.13 0 01-10.46 16.09q-7.44 6-19.78 8.44T1218 210zm125.51-65.78q0-13.86-5.93-18.9t-21.29-5h-98.29V179h98.79q15.12 0 20.92-4.66t5.8-18.28zm126.5 114.88q-18.9 0-31.5-3.15T1319 245.87a37.85 37.85 0 01-10.71-18.15q-3.15-11.21-3.15-27.59V146.2q0-16.12 3.15-27.47a37.86 37.86 0 0110.71-18.27q7.56-6.93 20.16-10.08t31.5-3.16H1413v32.51h-42.34a55.34 55.34 0 00-13.61 1.39 18.86 18.86 0 00-8.44 4.41 15.59 15.59 0 00-4.28 8.07 58.38 58.38 0 00-1.14 12.6v11.59h146.42v30.49h-146.42v12.1a59.8 59.8 0 001.14 12.85 16.05 16.05 0 004.16 8.07 16.28 16.28 0 008.44 4.15 68.46 68.46 0 0013.73 1.14h120v32.51zm208.92 0q-18.9 0-31.5-3.15t-20.16-10.08a37.85 37.85 0 01-10.71-18.15q-3.15-11.21-3.15-27.59V146.2q0-16.12 3.15-27.47a37.86 37.86 0 0110.71-18.27q7.56-6.93 20.16-10.08t31.5-3.16h42.34v32.51h-42.34a55.34 55.34 0 00-13.61 1.39 18.8 18.8 0 00-8.44 4.41 15.59 15.59 0 00-4.28 8.07 58.38 58.38 0 00-1.14 12.6v11.59h146.42v30.49h-146.42v12.1a59.8 59.8 0 001.14 12.85 16.12 16.12 0 004.15 8.07 16.36 16.36 0 008.45 4.15 68.46 68.46 0 0013.73 1.14h120v32.51z" fill="#fff"/><path d="M136.6 45.22a63.68 63.68 0 01-17.74-35.95A10.83 10.83 0 00108 0H97a11 11 0 00-11 10.91 11.66 11.66 0 00.06 1.18 97.66 97.66 0 0027.28 56.71 54.64 54.64 0 0115 29.63 10.9 10.9 0 0010.75 9.07h11.08a10.89 10.89 0 0011-12.09 87.83 87.83 0 00-24.57-50.19zm99.84 50.19a87.82 87.82 0 00-24.59-50.19 63.68 63.68 0 01-17.74-35.95A10.83 10.83 0 00183.26 0h-11a10.92 10.92 0 00-11 12.09 97.66 97.66 0 0027.31 56.71 54.64 54.64 0 0115.05 29.63 10.91 10.91 0 0010.75 9.07h11.09a10.88 10.88 0 0010.95-12.09z" style="isolation:isolate" fill="#fff"/><path d="M21.5 129h301a21.51 21.51 0 0121.5 21.5c0 63.63-34.64 119-86 148.79v23.21a21.51 21.51 0 01-21.5 21.5h-129A21.51 21.51 0 0186 322.5v-23.21C34.64 269.53 0 214.13 0 150.5A21.51 21.51 0 0121.5 129z" fill="#38d6c7"/></svg>