<svg xmlns="http://www.w3.org/2000/svg" viewBox="0 0 628.7 594.5"><path d="M0 594.5v-16.1h64.5c3.4 0 5.8-.5 7.3-1.4 1.5-1 2.2-2.9 2.2-5.8v-4.6c0-2.7-.7-4.5-2.2-5.7-1.5-1.1-3.9-1.7-7.2-1.7H24.1c-4.7 0-8.6-.4-11.8-1.3s-5.6-2.2-7.4-4c-1.8-1.8-3.1-4-3.8-6.7-.7-2.7-1.1-5.9-1.1-9.5v-4.2c0-4.3.5-8 1.4-11.1.9-3.1 2.3-5.5 4.2-7.4 1.9-1.9 4.4-3.2 7.5-4.1 3.1-.9 6.7-1.3 11-1.3h26.4v16.1H25.9c-2.9 0-5 .6-6.4 1.7s-2.1 3.4-2.1 6.8v2.7c0 2.7.6 4.5 1.9 5.7 1.2 1.1 3.4 1.7 6.5 1.7h39.7c4.7 0 8.7.4 12 1.2 3.3.8 6 2.1 8 3.8 2.1 1.7 3.6 4 4.5 6.7.9 2.7 1.4 6 1.4 9.8v6.7c0 4-.5 7.4-1.4 10.1-.9 2.8-2.4 5-4.5 6.8-2.1 1.7-4.8 3-8 3.9-3.3.8-7.3 1.2-12 1.2H0zm134.9 0c-6.2 0-11.4-.5-15.6-1.6-4.1-1-7.5-2.7-10-5s-4.3-5.3-5.3-9-1.6-8.2-1.6-13.6v-26.6c0-5.3.5-9.8 1.6-13.6 1-3.7 2.8-6.7 5.3-9s5.8-3.9 10-5c4.1-1 9.3-1.6 15.6-1.6h32.2c6.3 0 11.5.5 15.7 1.6 4.1 1 7.5 2.7 10 5s4.3 5.3 5.3 9 1.6 8.3 1.6 13.6v26.6c0 5.4-.5 9.9-1.6 13.6-1 3.7-2.8 6.7-5.3 9s-5.8 3.9-10 5c-4.1 1-9.4 1.6-15.7 1.6h-32.2zm45.8-54.9c0-2.7-.2-4.9-.7-6.6-.5-1.7-1.2-3.2-2.3-4.2-1.1-1.1-2.6-1.8-4.4-2.2-1.9-.4-4.2-.6-6.9-.6h-30.6c-3 0-5.4.2-7.3.6-1.9.4-3.3 1.2-4.4 2.2-1.1 1.1-1.8 2.5-2.2 4.2-.4 1.7-.6 3.9-.6 6.6v25c0 2.7.2 5 .6 6.8.4 1.8 1.1 3.2 2.2 4.2s2.6 1.7 4.4 2.1c1.9.4 4.3.6 7.3.6h30.6c2.7 0 5-.2 6.9-.6 1.9-.4 3.3-1.1 4.4-2.1 1.1-1 1.8-2.4 2.3-4.2.5-1.8.7-4 .7-6.8v-25zm63.7 54.9c-6.2 0-11.4-.5-15.6-1.6-4.2-1-7.5-2.7-10-5s-4.3-5.3-5.3-9-1.6-8.2-1.6-13.6v-55.8h19v55.1c0 2.7.3 4.8.8 6.5.5 1.7 1.4 3.1 2.6 4.2 1.2 1.1 2.7 1.8 4.7 2.2 1.9.4 4.3.6 7.2.6h28.5c2.8 0 5.2-.2 7.2-.6 1.9-.4 3.5-1.2 4.7-2.2 1.2-1.1 2-2.5 2.6-4.2.5-1.7.8-3.9.8-6.6v-55h18.8v55.8c0 5.4-.5 9.9-1.6 13.6-1 3.7-2.8 6.7-5.3 9s-5.8 3.9-10 5c-4.1 1-9.4 1.6-15.7 1.6h-31.8zm97.5-24.2v24.3H323v-84.9h68c6.1 0 11.1.5 15.2 1.4 4.1 1 7.3 2.5 9.8 4.7 2.5 2.2 4.3 5 5.3 8.5s1.6 7.7 1.6 12.7v7.3c0 5.1-.5 9.3-1.5 12.6-1 3.3-2.7 6-5.2 8-2.4 2-5.7 3.4-9.8 4.2-4.1.8-9.2 1.2-15.4 1.2h-49.1zm61.9-32.5c0-4.6-1-7.7-2.9-9.3-2-1.7-5.5-2.5-10.5-2.5h-48.5v29h48.8c5 0 8.4-.8 10.3-2.3 1.9-1.5 2.9-4.5 2.9-9v-5.9zm62.5 56.7c-6.2 0-11.4-.5-15.6-1.6-4.1-1-7.5-2.7-10-5s-4.3-5.3-5.3-9-1.6-8.2-1.6-13.6v-26.6c0-5.3.5-9.8 1.6-13.6 1-3.7 2.8-6.7 5.3-9s5.8-3.9 10-5c4.1-1 9.3-1.6 15.6-1.6h20.9v16.1h-20.9c-2.7 0-5 .2-6.7.7-1.7.5-3.1 1.2-4.2 2.2-1 1-1.7 2.3-2.1 4-.4 1.7-.6 3.7-.6 6.2v5.7H525v15.1h-72.3v6c0 2.6.2 4.7.6 6.3.4 1.7 1.1 3 2.1 4s2.4 1.7 4.2 2.1c1.8.4 4 .6 6.8.6h59.2v16.1h-59.3zm103.2 0c-6.2 0-11.4-.5-15.6-1.6-4.1-1-7.5-2.7-10-5s-4.3-5.3-5.3-9-1.6-8.2-1.6-13.6v-26.6c0-5.3.5-9.8 1.6-13.6 1-3.7 2.8-6.7 5.3-9s5.8-3.9 10-5c4.1-1 9.3-1.6 15.6-1.6h20.9v16.1h-20.9c-2.7 0-5 .2-6.7.7-1.7.5-3.1 1.2-4.2 2.2-1 1-1.7 2.3-2.1 4-.4 1.7-.6 3.7-.6 6.2v5.7h72.3v15.1h-72.3v6c0 2.6.2 4.7.6 6.3.4 1.7 1.1 3 2.1 4s2.4 1.7 4.2 2.1c1.8.4 4 .6 6.8.6h59.2v16.1h-59.3zM270.1 56.6c-12-12.2-19.8-28-22.2-45-1-6.7-6.8-11.7-13.5-11.6h-13.8c-7.6 0-13.7 6.1-13.8 13.6 0 .5 0 1 .1 1.5 3.2 26.8 15.2 51.7 34.1 70.9 10 10.1 16.6 23.1 18.8 37.1 1.1 6.6 6.8 11.3 13.4 11.3h13.9c8.2 0 14.8-7.1 13.7-15.1-3.1-23.7-13.9-45.7-30.7-62.7zM395 119.3c-3.1-23.7-13.9-45.8-30.8-62.8-12-12.2-19.8-28-22.2-45-1-6.7-6.8-11.7-13.6-11.6h-13.8C306.4 0 300 7.1 301 15.1c3.2 26.8 15.2 51.7 34.1 70.9 10 10.1 16.6 23.1 18.8 37.1 1.1 6.6 6.8 11.3 13.4 11.3h13.9c8.3.1 14.9-7.1 13.8-15.1z" fill="#22222e"/><path d="M126.1 161.4h376.5c14.9 0 26.9 12 26.9 26.9 0 79.6-43.3 148.9-107.6 186.1v29c0 14.9-12 26.9-26.9 26.9H233.7c-14.9 0-26.9-12-26.9-26.9v-29C142.6 337.1 99.2 267.8 99.2 188.2c0-14.8 12.1-26.8 26.9-26.8z" fill="#38d6c7"/></svg>