<svg xmlns="http://www.w3.org/2000/svg" viewBox="0 0 512 512"><path d="M204.8 67.3c-14.3-14.5-23.6-33.3-26.4-53.5-1.2-8-8-13.9-16.1-13.8h-16.4c-9 0-16.4 7.2-16.4 16.2 0 .6 0 1.2.1 1.8 3.9 31.8 18.1 61.5 40.6 84.4 11.9 12 19.7 27.4 22.4 44.1 1.3 7.8 8.1 13.5 16 13.5h16.5c9.8 0 17.6-8.5 16.3-18-3.7-28.2-16.6-54.4-36.6-74.7zM353.4 142c-3.7-28.2-16.6-54.5-36.6-74.7-14.3-14.5-23.6-33.3-26.4-53.5-1.2-8-8.1-13.9-16.1-13.8h-16.4c-9.8 0-17.5 8.5-16.3 18 3.9 31.8 18.1 61.5 40.6 84.4 11.9 12 19.7 27.4 22.4 44.1 1.3 7.8 8.1 13.5 16 13.5h16.5c9.8 0 17.6-8.5 16.3-18z" fill="#22222e"/><path d="M33.5 192h448c17.7 0 32 14.3 32 32 0 94.7-51.6 177.2-128 221.5V480c0 17.7-14.3 32-32 32h-192c-17.7 0-32-14.3-32-32v-34.5C53.1 401.2 1.5 318.7 1.5 224c0-17.7 14.4-32 32-32z" fill="#38d6c7"/></svg>