<?xml version="1.0" encoding="utf-8"?>
<!-- Generator: Adobe Illustrator 24.1.1, SVG Export Plug-In . SVG Version: 6.00 Build 0)  -->
<svg version="1.1" id="soupee" xmlns="http://www.w3.org/2000/svg" xmlns:xlink="http://www.w3.org/1999/xlink" x="0px" y="0px"
	 viewBox="0 0 628.7 594.5" style="enable-background:new 0 0 628.7 594.5;" xml:space="preserve">
<style type="text/css">
	.st0{fill:#FFFFFF;}
	.st1{fill:#FFFFFF;enable-background:new    ;}
	.st2{fill:#38D6C7;}
</style>
<g id="text">
	<path class="st0" d="M0,594.5v-16.1h64.5c3.4,0,5.8-0.5,7.3-1.4c1.5-1,2.2-2.9,2.2-5.8v-4.6c0-2.7-0.7-4.5-2.2-5.7
		c-1.5-1.1-3.9-1.7-7.2-1.7H24.1c-4.7,0-8.6-0.4-11.8-1.3s-5.6-2.2-7.4-4c-1.8-1.8-3.1-4-3.8-6.7c-0.7-2.7-1.1-5.9-1.1-9.5v-4.2
		c0-4.3,0.5-8,1.4-11.1c0.9-3.1,2.3-5.5,4.2-7.4c1.9-1.9,4.4-3.2,7.5-4.1c3.1-0.9,6.7-1.3,11-1.3h26.4v16.1H25.9
		c-2.9,0-5,0.6-6.4,1.7s-2.1,3.4-2.1,6.8v2.7c0,2.7,0.6,4.5,1.9,5.7c1.2,1.1,3.4,1.7,6.5,1.7h39.7c4.7,0,8.7,0.4,12,1.2
		c3.3,0.8,6,2.1,8,3.8c2.1,1.7,3.6,4,4.5,6.7c0.9,2.7,1.4,6,1.4,9.8v6.7c0,4-0.5,7.4-1.4,10.1c-0.9,2.8-2.4,5-4.5,6.8
		c-2.1,1.7-4.8,3-8,3.9c-3.3,0.8-7.3,1.2-12,1.2H0z"/>
	<path class="st0" d="M134.9,594.5c-6.2,0-11.4-0.5-15.6-1.6c-4.1-1-7.5-2.7-10-5c-2.5-2.3-4.3-5.3-5.3-9c-1-3.7-1.6-8.2-1.6-13.6
		v-26.6c0-5.3,0.5-9.8,1.6-13.6c1-3.7,2.8-6.7,5.3-9c2.5-2.3,5.8-3.9,10-5c4.1-1,9.3-1.6,15.6-1.6h32.2c6.3,0,11.5,0.5,15.7,1.6
		c4.1,1,7.5,2.7,10,5c2.5,2.3,4.3,5.3,5.3,9c1,3.7,1.6,8.3,1.6,13.6v26.6c0,5.4-0.5,9.9-1.6,13.6c-1,3.7-2.8,6.7-5.3,9
		c-2.5,2.3-5.8,3.9-10,5c-4.1,1-9.4,1.6-15.7,1.6H134.9z M180.7,539.6c0-2.7-0.2-4.9-0.7-6.6c-0.5-1.7-1.2-3.2-2.3-4.2
		c-1.1-1.1-2.6-1.8-4.4-2.2c-1.9-0.4-4.2-0.6-6.9-0.6h-30.6c-3,0-5.4,0.2-7.3,0.6c-1.9,0.4-3.3,1.2-4.4,2.2
		c-1.1,1.1-1.8,2.5-2.2,4.2c-0.4,1.7-0.6,3.9-0.6,6.6v25c0,2.7,0.2,5,0.6,6.8c0.4,1.8,1.1,3.2,2.2,4.2c1.1,1,2.6,1.7,4.4,2.1
		c1.9,0.4,4.3,0.6,7.3,0.6h30.6c2.7,0,5-0.2,6.9-0.6c1.9-0.4,3.3-1.1,4.4-2.1c1.1-1,1.8-2.4,2.3-4.2c0.5-1.8,0.7-4,0.7-6.8V539.6z"
		/>
	<path class="st0" d="M244.4,594.5c-6.2,0-11.4-0.5-15.6-1.6c-4.2-1-7.5-2.7-10-5c-2.5-2.3-4.3-5.3-5.3-9c-1-3.7-1.6-8.2-1.6-13.6
		v-55.8h19v55.1c0,2.7,0.3,4.8,0.8,6.5c0.5,1.7,1.4,3.1,2.6,4.2c1.2,1.1,2.7,1.8,4.7,2.2c1.9,0.4,4.3,0.6,7.2,0.6h28.5
		c2.8,0,5.2-0.2,7.2-0.6c1.9-0.4,3.5-1.2,4.7-2.2c1.2-1.1,2-2.5,2.6-4.2c0.5-1.7,0.8-3.9,0.8-6.6v-55h18.8v55.8
		c0,5.4-0.5,9.9-1.6,13.6c-1,3.7-2.8,6.7-5.3,9c-2.5,2.3-5.8,3.9-10,5c-4.1,1-9.4,1.6-15.7,1.6H244.4z"/>
	<path class="st0" d="M341.9,570.3v24.3H323v-84.9h68c6.1,0,11.1,0.5,15.2,1.4c4.1,1,7.3,2.5,9.8,4.7c2.5,2.2,4.3,5,5.3,8.5
		c1,3.5,1.6,7.7,1.6,12.7v7.3c0,5.1-0.5,9.3-1.5,12.6c-1,3.3-2.7,6-5.2,8c-2.4,2-5.7,3.4-9.8,4.2c-4.1,0.8-9.2,1.2-15.4,1.2H341.9z
		 M403.8,537.8c0-4.6-1-7.7-2.9-9.3c-2-1.7-5.5-2.5-10.5-2.5h-48.5v29h48.8c5,0,8.4-0.8,10.3-2.3c1.9-1.5,2.9-4.5,2.9-9V537.8z"/>
	<path class="st0" d="M466.3,594.5c-6.2,0-11.4-0.5-15.6-1.6c-4.1-1-7.5-2.7-10-5c-2.5-2.3-4.3-5.3-5.3-9c-1-3.7-1.6-8.2-1.6-13.6
		v-26.6c0-5.3,0.5-9.8,1.6-13.6c1-3.7,2.8-6.7,5.3-9c2.5-2.3,5.8-3.9,10-5c4.1-1,9.3-1.6,15.6-1.6h20.9v16.1h-20.9
		c-2.7,0-5,0.2-6.7,0.7c-1.7,0.5-3.1,1.2-4.2,2.2c-1,1-1.7,2.3-2.1,4c-0.4,1.7-0.6,3.7-0.6,6.2v5.7h72.3v15.1h-72.3v6
		c0,2.6,0.2,4.7,0.6,6.3c0.4,1.7,1.1,3,2.1,4c1,1,2.4,1.7,4.2,2.1c1.8,0.4,4,0.6,6.8,0.6h59.2v16.1H466.3z"/>
	<path class="st0" d="M569.5,594.5c-6.2,0-11.4-0.5-15.6-1.6c-4.1-1-7.5-2.7-10-5c-2.5-2.3-4.3-5.3-5.3-9c-1-3.7-1.6-8.2-1.6-13.6
		v-26.6c0-5.3,0.5-9.8,1.6-13.6c1-3.7,2.8-6.7,5.3-9c2.5-2.3,5.8-3.9,10-5c4.1-1,9.3-1.6,15.6-1.6h20.9v16.1h-20.9
		c-2.7,0-5,0.2-6.7,0.7c-1.7,0.5-3.1,1.2-4.2,2.2c-1,1-1.7,2.3-2.1,4c-0.4,1.7-0.6,3.7-0.6,6.2v5.7h72.3v15.1h-72.3v6
		c0,2.6,0.2,4.7,0.6,6.3c0.4,1.7,1.1,3,2.1,4c1,1,2.4,1.7,4.2,2.1c1.8,0.4,4,0.6,6.8,0.6h59.2v16.1H569.5z"/>
</g>
<g id="isologo">
	<path class="st1" d="M270.1,56.6c-12-12.2-19.8-28-22.2-45c-1-6.7-6.8-11.7-13.5-11.6h-13.8c-7.6,0-13.7,6.1-13.8,13.6c0,0,0,0,0,0
		c0,0.5,0,1,0.1,1.5c3.2,26.8,15.2,51.7,34.1,70.9c10,10.1,16.6,23.1,18.8,37.1c1.1,6.6,6.8,11.3,13.4,11.3h13.9
		c8.2,0,14.8-7.1,13.7-15.1C297.7,95.6,286.9,73.6,270.1,56.6z M395,119.3c-3.1-23.7-13.9-45.8-30.8-62.8c-12-12.2-19.8-28-22.2-45
		c-1-6.7-6.8-11.7-13.6-11.6h-13.8C306.4,0,300,7.1,301,15.1c3.2,26.8,15.2,51.7,34.1,70.9c10,10.1,16.6,23.1,18.8,37.1h0
		c1.1,6.6,6.8,11.3,13.4,11.3h13.9C389.5,134.5,396.1,127.3,395,119.3L395,119.3z"/>
	<path class="st2" d="M126.1,161.4h376.5c14.9,0,26.9,12,26.9,26.9c0,79.6-43.3,148.9-107.6,186.1v29c0,14.9-12,26.9-26.9,26.9
		H233.7c-14.9,0-26.9-12-26.9-26.9v-29C142.6,337.1,99.2,267.8,99.2,188.2C99.2,173.4,111.3,161.4,126.1,161.4z"/>
</g>
</svg>
