<?xml version="1.0" encoding="utf-8"?>
<!-- Generator: Adobe Illustrator 24.1.1, SVG Export Plug-In . SVG Version: 6.00 Build 0)  -->
<svg version="1.1" id="Layer_1" focusable="false" xmlns="http://www.w3.org/2000/svg" xmlns:xlink="http://www.w3.org/1999/xlink"
	 x="0px" y="0px" viewBox="0 0 512 512" style="enable-background:new 0 0 512 512;" xml:space="preserve">
<style type="text/css">
	.st0{fill:#22222E;enable-background:new    ;}
	.st1{fill:#38D6C7;}
</style>
<g id="isologo">
	<path class="st0" d="M204.8,67.3c-14.3-14.5-23.6-33.3-26.4-53.5c-1.2-8-8-13.9-16.1-13.8h-16.4c-9,0-16.4,7.2-16.4,16.2
		c0,0,0,0,0,0c0,0.6,0,1.2,0.1,1.8c3.9,31.8,18.1,61.5,40.6,84.4c11.9,12,19.7,27.4,22.4,44.1c1.3,7.8,8.1,13.5,16,13.5h16.5
		c9.8,0,17.6-8.5,16.3-18C237.7,113.8,224.8,87.6,204.8,67.3z M353.4,142c-3.7-28.2-16.6-54.5-36.6-74.7
		c-14.3-14.5-23.6-33.3-26.4-53.5c-1.2-8-8.1-13.9-16.1-13.8h-16.4c-9.8,0-17.5,8.5-16.3,18c3.9,31.8,18.1,61.5,40.6,84.4
		c11.9,12,19.7,27.4,22.4,44.1h0c1.3,7.8,8.1,13.5,16,13.5h16.5C346.9,160,354.7,151.5,353.4,142L353.4,142z"/>
	<path class="st1" d="M33.5,192h448c17.7,0,32,14.3,32,32c0,94.7-51.6,177.2-128,221.5V480c0,17.7-14.3,32-32,32h-192
		c-17.7,0-32-14.3-32-32v-34.5C53.1,401.2,1.5,318.7,1.5,224C1.5,206.3,15.9,192,33.5,192z"/>
</g>
</svg>
